<svg height="512" viewBox="0 0 64 64" width="512" xmlns="http://www.w3.org/2000/svg"><g id="Dad-Man-Father-Love-Heart"><g fill="#ed1c24"><path d="m3 14a2.006 2.006 0 0 1 2-2h1v-1a2 2 0 0 1 4 0v5h-5a2.006 2.006 0 0 1 -2-2z"/><path d="m16.54 28.64a1.992 1.992 0 0 1 0 2.82l-3.54 3.54-3.54-3.54a2 2 0 0 1 2.83-2.82l.71.7.71-.7a2 2 0 0 1 2.83 0z"/><path d="m54.54 28.64a1.992 1.992 0 0 1 0 2.82l-3.54 3.54-3.54-3.54a2 2 0 0 1 2.83-2.82l.71.7.71-.7a2 2 0 0 1 2.83 0z"/><path d="m59 16h-5v-5a2 2 0 0 1 4 0v1h1a2 2 0 0 1 0 4z"/></g><path d="m47 45.42v15.58h-30v-15.58a12.02 12.02 0 0 1 6.63-10.74l2.51-1.25h11.72l2.51 1.25a12.02 12.02 0 0 1 6.63 10.74z" fill="#ff5023"/><path d="m35 27.48v3.52l-3 5-3-5v-3.52a8.914 8.914 0 0 0 6 0z" fill="#ffc477"/><path d="m35 27.48v3a8.914 8.914 0 0 1 -6 0v-3a8.914 8.914 0 0 0 6 0z" fill="#ffb655"/><path d="m41 13v7a8.981 8.981 0 0 1 -6 8.48 8.914 8.914 0 0 1 -6 0 8.981 8.981 0 0 1 -6-8.48v-7a2.006 2.006 0 0 1 2-2h14a2.006 2.006 0 0 1 2 2z" fill="#ffc477"/><path d="m38 33-.14.43-1.86 5.57-4-3 3-5z" fill="#ed1c24"/><path d="m29 31 3 5-4 3-1.86-5.57-.14-.43z" fill="#ed1c24"/><path d="m29.126 21h5.748a1.009 1.009 0 0 1 .971 1.267 3.7 3.7 0 0 1 -3.845 2.733 3.7 3.7 0 0 1 -3.845-2.733 1.009 1.009 0 0 1 .971-1.267z" fill="#ff9811"/><path d="m41 6v7a2.006 2.006 0 0 0 -2-2h-6c2.21 0 4-.79 4-3v-2z" fill="#787680"/><path d="m25 11a2.006 2.006 0 0 0 -2 2v-6a4 4 0 0 1 4-4h10v5c0 2.21-1.79 3-4 3z" fill="#57565c"/><path d="m23 14v5h-1.5a2.5 2.5 0 0 1 0-5z" fill="#ffb655"/><path d="m42.5 14a2.5 2.5 0 1 1 0 5h-1.5v-5z" fill="#ffb655"/><path d="m35.54 45.64a1.992 1.992 0 0 1 0 2.82l-3.54 3.54-3.54-3.54a2 2 0 1 1 2.83-2.82l.71.7.71-.7a2 2 0 0 1 2.83 0z" fill="#ed1c24"/><path d="m24 61h-2v-17a1 1 0 0 1 1-1 1 1 0 0 1 1 1z" fill="#ed1c24"/><path d="m42 61h-2v-17a1 1 0 0 1 1-1 1 1 0 0 1 1 1z" fill="#ed1c24"/><path d="m29.727 17a.939.939 0 0 1 -.842-.465 1 1 0 0 0 -1.77 0 .939.939 0 0 1 -.842.465 1 1 0 0 1 -.9-1.452 3 3 0 0 1 5.25 0 1 1 0 0 1 -.896 1.452z" fill="#ee8700"/><path d="m37.727 17a.939.939 0 0 1 -.842-.465 1 1 0 0 0 -1.77 0 .939.939 0 0 1 -.842.465 1 1 0 0 1 -.9-1.452 3 3 0 0 1 5.25 0 1 1 0 0 1 -.896 1.452z" fill="#ee8700"/></g></svg>