<?xml version="1.0" encoding="iso-8859-1"?>
<!-- Generator: Adobe Illustrator 19.0.0, SVG Export Plug-In . SVG Version: 6.00 Build 0)  -->
<svg version="1.1" id="Capa_1" xmlns="http://www.w3.org/2000/svg" xmlns:xlink="http://www.w3.org/1999/xlink" x="0px" y="0px"
	 viewBox="0 0 512.559 512.559" style="enable-background:new 0 0 512.559 512.559;" xml:space="preserve">
<path style="fill:#F3705A;" d="M248.026,149.499c-16,41.6,37.333,108.8,37.333,108.8s84.267-17.067,99.2-58.667
	c7.467-20.267-3.2-42.667-22.4-50.133c-13.867-5.333-27.733-2.133-38.4,6.4c-2.133-12.8-10.667-25.6-24.533-29.867
	C277.893,118.566,255.493,129.233,248.026,149.499z"/>
<ellipse transform="matrix(-0.8673 0.4978 -0.4978 -0.8673 769.3811 156.0567)" style="fill:#FFFFFF;" cx="363.889" cy="180.582" rx="7.467" ry="17.067"/>
<path style="fill:#F3705A;" d="M370.693,131.366c13.867,38.4,90.667,54.4,90.667,54.4s48-61.867,34.133-100.267
	c-6.4-18.133-27.733-27.733-45.867-21.333c-12.8,4.267-21.333,14.933-22.4,27.733c-9.6-7.467-22.4-10.667-35.2-6.4
	C373.893,92.966,364.293,113.233,370.693,131.366z"/>
<ellipse transform="matrix(-0.3348 0.9423 -0.9423 -0.3348 707.1555 -330.2473)" style="fill:#FFFFFF;" cx="470.146" cy="84.482" rx="7.467" ry="14.934"/>
<path style="fill:#F3705A;" d="M335.493,12.966c-10.667,22.4,14.933,62.933,14.933,62.933s48-5.333,58.667-27.733
	c5.333-10.667,0-23.467-10.667-28.8c-7.467-3.2-16-2.133-21.333,2.133c-1.067-7.467-5.333-14.933-12.8-18.133
	C353.626-3.034,340.826,1.233,335.493,12.966z"/>
<ellipse transform="matrix(-0.9061 0.423 -0.423 -0.9061 774.3537 -100.6326)" style="fill:#FFFFFF;" cx="398.343" cy="35.607" rx="4.267" ry="9.6"/>
<path style="fill:#E8EAE9;" d="M512.559,228.433v260.267c0,12.8-10.667,23.467-23.467,23.467h-348.8
	c-12.8,0-23.467-10.667-23.467-23.467V228.433H512.559z"/>
<g>
	<rect x="284.293" y="228.433" style="fill:#55C0EB;" width="60.8" height="283.733"/>
	<rect x="116.826" y="339.366" style="fill:#55C0EB;" width="395.733" height="60.8"/>
</g>
<path style="fill:#F3F3F3;" d="M222.426,7.633L5.893,318.033c-6.4,8.533-4.267,20.267,4.267,25.6l54.4,38.4L302.426,40.699
	l-54.4-37.333C239.493-1.967,227.759,0.166,222.426,7.633z"/>
<rect x="118.917" y="145.062" transform="matrix(-0.5723 0.82 -0.82 -0.5723 387.4393 172.3225)" style="fill:#55C0EB;" width="59.731" height="84.264"/>
<path style="fill:#8AD7F8;" d="M102.959,148.433c-5.333-3.2-87.467,20.267-100.267,43.733c-10.667,21.333,18.133,19.2,43.733,37.333
	c25.6,17.067,34.133,44.8,50.133,26.667C113.626,236.966,108.293,151.633,102.959,148.433z"/>
<path style="fill:#55C0EB;" d="M72.026,153.766l8.533-11.733c-1.067,24.533-24.533,53.333-39.467,64
	c-9.6,7.467-23.467,8.533-34.133,2.133c-6.4-4.267-9.6-8.533-4.267-18.133C11.226,177.233,46.426,162.299,72.026,153.766z"/>
<path style="fill:#8AD7F8;" d="M95.493,158.033c-4.267-4.267-10.667-89.6,6.4-108.8c16-17.067,24.533,10.667,50.133,27.733
	s54.4,17.067,43.733,37.333C182.959,137.766,100.826,161.233,95.493,158.033z"/>
<path style="fill:#55C0EB;" d="M91.226,127.099l-7.467,11.733c22.4-9.6,41.6-41.6,46.933-58.667c3.2-11.733,0-25.6-9.6-33.067
	c-6.4-4.267-12.8-5.333-19.2,2.133C91.226,62.033,89.093,99.366,91.226,127.099z"/>
<path style="fill:#415A6B;" d="M126.426,151.633c-3.2,11.733-9.6,20.267-19.2,26.667l-35.2-24.533c0-12.8,6.4-22.4,19.2-26.667
	L126.426,151.633z"/>
<g>
</g>
<g>
</g>
<g>
</g>
<g>
</g>
<g>
</g>
<g>
</g>
<g>
</g>
<g>
</g>
<g>
</g>
<g>
</g>
<g>
</g>
<g>
</g>
<g>
</g>
<g>
</g>
<g>
</g>
</svg>
